@startuml 診察予約システム
state 診察予約システム {
    [*] -right--> メニュー : 接続ON
    メニュー -down--> 予約と確認  : 予約
    予約と確認 -up--> メニュー : 取り消しボタンを押す
    予約と確認 -right--> あなたの順番 : 登録ボタンを押す
    予約と確認 -right--> あなたの順番 : 確認ボタンを押す
    あなたの順番 -up--> メニュー : メニューボタンを押す
    今の順番 -up--> メニュー : メニューボタンを押す
    メニュー -down--> 今の順番 : 今の順番ボタンを押す
    メニュー -right--> [*] : 接続OFF
}
@enduml